<?xml version="1.0" standalone="no"?>
<!DOCTYPE svg PUBLIC "-//W3C//DTD SVG 20010904//EN"
 "http://www.w3.org/TR/2001/REC-SVG-20010904/DTD/svg10.dtd">
<svg version="1.0" xmlns="http://www.w3.org/2000/svg"
 width="200.000000pt" height="200.000000pt" viewBox="0 0 200.000000 200.000000"
 preserveAspectRatio="xMidYMid meet">
<metadata>
Created by potrace 1.14, written by Peter Selinger 2001-2017
</metadata>
<g transform="translate(0.000000,200.000000) scale(0.100000,-0.100000)"
fill="#000000" stroke="none">
<path d="M0 1000 l0 -1000 1000 0 1000 0 0 1000 0 1000 -1000 0 -1000 0 0
-1000z m928 409 c26 -13 68 -43 94 -67 41 -38 49 -42 54 -27 5 13 -4 29 -34
56 -22 21 -38 40 -34 43 23 13 128 28 175 24 62 -5 115 -38 148 -92 36 -59 19
-180 -35 -242 -27 -32 -39 -38 -77 -40 l-44 -2 -5 -128 -5 -128 -40 -12 c-57
-18 -182 -17 -243 1 l-52 16 0 144 0 145 -30 0 -30 0 0 171 0 172 55 -6 c31
-3 77 -16 103 -28z m272 -719 c0 -33 -4 -60 -10 -60 -6 0 -10 27 -10 60 0 33
4 60 10 60 6 0 10 -27 10 -60z m-600 14 c0 -9 -9 -18 -20 -21 -19 -5 -20 -14
-20 -135 0 -118 -2 -129 -17 -126 -16 3 -18 19 -21 131 -2 104 -5 127 -17 127
-8 0 -15 9 -15 20 0 18 7 20 55 20 44 0 55 -3 55 -16z m118 -14 c8 -17 12 -58
10 -126 -2 -84 -6 -106 -22 -123 -24 -27 -48 -27 -72 0 -16 18 -19 37 -19 128
0 127 10 154 58 149 22 -2 36 -11 45 -28z m139 0 c27 -53 12 -260 -19 -260
-14 0 -9 -28 7 -34 24 -9 17 -26 -10 -26 -18 0 -26 7 -31 26 -4 15 -15 35 -25
45 -27 27 -28 232 -2 261 23 26 64 20 80 -12z m83 -100 c0 -123 1 -130 20
-130 19 0 20 7 20 130 0 109 2 130 15 130 13 0 15 -21 15 -130 0 -117 -2 -132
-20 -150 -24 -24 -38 -25 -62 -3 -16 14 -18 33 -18 150 0 112 2 133 15 133 13
0 15 -21 15 -130z m200 115 c0 -9 -9 -15 -25 -15 -23 0 -25 -4 -25 -44 0 -35
4 -45 20 -49 11 -3 20 -10 20 -17 0 -7 -9 -14 -20 -17 -17 -4 -20 -14 -20 -54
0 -46 2 -49 25 -49 16 0 25 -6 25 -15 0 -11 -12 -15 -45 -15 l-45 0 0 145 0
145 45 0 c33 0 45 -4 45 -15z m194 0 c8 -9 18 -32 22 -51 10 -53 -1 -190 -16
-209 -19 -23 -62 -15 -78 15 -17 34 -12 220 7 243 17 21 45 22 65 2z"/>
<path d="M790 1206 c0 -15 21 -26 50 -26 10 0 53 -14 96 -31 l78 -31 60 17
c88 25 108 34 100 46 -7 12 -46 8 -115 -11 -45 -13 -50 -12 -118 18 -76 34
-151 43 -151 18z"/>
<path d="M850 846 c0 -22 64 -38 147 -37 74 1 153 17 153 31 0 4 -55 6 -122 6
-68 -1 -135 2 -150 7 -21 6 -28 4 -28 -7z"/>
<path d="M655 668 c-3 -13 -5 -63 -3 -113 3 -77 6 -90 21 -93 16 -3 17 6 15
109 -2 77 -7 114 -15 116 -7 3 -15 -6 -18 -19z"/>
<path d="M796 674 c-3 -9 -6 -53 -6 -99 0 -91 5 -115 25 -115 17 0 25 33 25
112 0 92 -25 151 -44 102z"/>
<path d="M1287 684 c-9 -9 -9 -196 -1 -218 9 -23 33 -19 39 7 3 12 5 65 3 117
-2 76 -6 95 -18 98 -9 1 -19 0 -23 -4z"/>
</g>
</svg>
